HIERARCHY
ROOT ORG_Hips
{
	OFFSET 0.002195 0.276549 -0.119644
	CHANNELS 6 Xposition Yposition Zposition Xrotation Yrotation Zrotation
	JOINT ORG_BN_Bip01_Pelvis
	{
		OFFSET -0.000005 -0.130429 -0.122533
		CHANNELS 3 Xrotation Yrotation Zrotation
		JOINT DEF_BN_Eye_L_01
		{
			OFFSET 0.034465 0.165452 0.234836
			CHANNELS 3 Xrotation Yrotation Zrotation
			JOINT DEF_BN_Eye_L_02
			{
				OFFSET 0.013967 -0.003054 0.018051
				CHANNELS 3 Xrotation Yrotation Zrotation
				JOINT DEF_BN_Eye_L_03
				{
					OFFSET 0.031914 0.029256 0.030898
					CHANNELS 3 Xrotation Yrotation Zrotation
					JOINT DEF_BN_Eye_L_03_end
					{
						OFFSET 0.031634 0.037856 0.019883
						CHANNELS 3 Xrotation Yrotation Zrotation
						End Site
						{
							OFFSET 0.031634 0.037856 0.019883
						}
					}
				}
			}
		}
		JOINT DEF_BN_Eye_R_01
		{
			OFFSET -0.016220 0.170169 0.233429
			CHANNELS 3 Xrotation Yrotation Zrotation
			JOINT DEF_BN_Eye_R_02
			{
				OFFSET -0.015307 -0.000857 0.017182
				CHANNELS 3 Xrotation Yrotation Zrotation
				JOINT DEF_BN_Eye_R_03
				{
					OFFSET -0.025557 0.036659 0.028846
					CHANNELS 3 Xrotation Yrotation Zrotation
					JOINT DEF_BN_Eye_R_03_end
					{
						OFFSET -0.022499 0.044128 0.019381
						CHANNELS 3 Xrotation Yrotation Zrotation
						End Site
						{
							OFFSET -0.022499 0.044128 0.019381
						}
					}
				}
			}
		}
		JOINT DEF_BN_Leg_L_11
		{
			OFFSET 0.082495 0.009555 0.023389
			CHANNELS 3 Xrotation Yrotation Zrotation
			JOINT DEF_BN_Leg_L_12
			{
				OFFSET 0.071294 -0.022573 -0.064435
				CHANNELS 3 Xrotation Yrotation Zrotation
				JOINT DEF_BN_Leg_L_13
				{
					OFFSET 0.174351 0.107049 -0.077156
					CHANNELS 3 Xrotation Yrotation Zrotation
					JOINT DEF_BN_Leg_L_14
					{
						OFFSET 0.082840 -0.037595 -0.061860
						CHANNELS 3 Xrotation Yrotation Zrotation
						JOINT DEF_BN_Leg_L_15
						{
							OFFSET 0.067977 -0.083342 -0.070866
							CHANNELS 3 Xrotation Yrotation Zrotation
							JOINT DEF_BN_Leg_L_15_end
							{
								OFFSET 0.010923 -0.118660 -0.048881
								CHANNELS 3 Xrotation Yrotation Zrotation
								End Site
								{
									OFFSET 0.010923 0.016985 -0.048881
								}
							}
						}
					}
				}
			}
		}
		JOINT DEF_BN_Leg_R_11
		{
			OFFSET -0.080477 0.024722 0.018868
			CHANNELS 3 Xrotation Yrotation Zrotation
			JOINT DEF_BN_Leg_R_12
			{
				OFFSET -0.067150 -0.041305 -0.059406
				CHANNELS 3 Xrotation Yrotation Zrotation
				JOINT DEF_BN_Leg_R_13
				{
					OFFSET -0.171738 0.122956 -0.056556
					CHANNELS 3 Xrotation Yrotation Zrotation
					JOINT DEF_BN_Leg_R_14
					{
						OFFSET -0.081995 -0.047709 -0.055705
						CHANNELS 3 Xrotation Yrotation Zrotation
						JOINT DEF_BN_Leg_R_15
						{
							OFFSET -0.071457 -0.086316 -0.063499
							CHANNELS 3 Xrotation Yrotation Zrotation
							JOINT DEF_BN_Leg_R_15_end
							{
								OFFSET -0.023724 -0.117169 -0.047932
								CHANNELS 3 Xrotation Yrotation Zrotation
								End Site
								{
									OFFSET -0.023724 0.017789 -0.047932
								}
							}
						}
					}
				}
			}
		}
		JOINT DEF_BN_leg_L_01
		{
			OFFSET 0.077225 0.021671 0.123900
			CHANNELS 3 Xrotation Yrotation Zrotation
			JOINT DEF_BN_leg_L_02
			{
				OFFSET 0.061322 -0.017910 0.062120
				CHANNELS 3 Xrotation Yrotation Zrotation
				JOINT DEF_BN_leg_L_03
				{
					OFFSET 0.090499 0.080240 0.098565
					CHANNELS 3 Xrotation Yrotation Zrotation
					JOINT DEF_BN_leg_L_04
					{
						OFFSET 0.035294 -0.040907 0.080340
						CHANNELS 3 Xrotation Yrotation Zrotation
						JOINT DEF_BN_leg_L_05
						{
							OFFSET 0.038312 -0.082094 0.056903
							CHANNELS 3 Xrotation Yrotation Zrotation
							JOINT DEF_BN_leg_L_05_end
							{
								OFFSET -0.001359 -0.106923 0.003304
								CHANNELS 3 Xrotation Yrotation Zrotation
								End Site
								{
									OFFSET -0.001360 0.021254 0.003305
								}
							}
						}
					}
				}
			}
		}
		JOINT DEF_BN_leg_L_06
		{
			OFFSET 0.078774 0.006440 0.078977
			CHANNELS 3 Xrotation Yrotation Zrotation
			JOINT DEF_BN_Leg_L_07
			{
				OFFSET 0.083528 -0.034434 -0.002060
				CHANNELS 3 Xrotation Yrotation Zrotation
				JOINT DEF_BN_Leg_L_08
				{
					OFFSET 0.119291 0.136566 0.048241
					CHANNELS 3 Xrotation Yrotation Zrotation
					JOINT DEF_BN_Leg_L_09
					{
						OFFSET 0.091371 -0.053438 0.028675
						CHANNELS 3 Xrotation Yrotation Zrotation
						JOINT DEF_BN_Leg_L_10
						{
							OFFSET 0.045488 -0.097240 0.017221
							CHANNELS 3 Xrotation Yrotation Zrotation
							JOINT DEF_BN_Leg_L_10_end
							{
								OFFSET -0.011345 -0.108106 -0.002390
								CHANNELS 3 Xrotation Yrotation Zrotation
								End Site
								{
									OFFSET -0.011345 0.027789 -0.002390
								}
							}
						}
					}
				}
			}
		}
		JOINT DEF_BN_leg_R_01
		{
			OFFSET -0.078597 0.036173 0.119577
			CHANNELS 3 Xrotation Yrotation Zrotation
			JOINT DEF_BN_leg_R_02
			{
				OFFSET -0.075483 -0.034917 0.031987
				CHANNELS 3 Xrotation Yrotation Zrotation
				JOINT DEF_BN_leg_R_03
				{
					OFFSET -0.107318 0.098291 0.056260
					CHANNELS 3 Xrotation Yrotation Zrotation
					JOINT DEF_BN_leg_R_04
					{
						OFFSET -0.043041 -0.055820 0.066372
						CHANNELS 3 Xrotation Yrotation Zrotation
						JOINT DEF_BN_leg_R_05
						{
							OFFSET -0.038049 -0.086035 0.050946
							CHANNELS 3 Xrotation Yrotation Zrotation
							JOINT DEF_BN_leg_R_05_end
							{
								OFFSET 0.005565 -0.103751 0.025494
								CHANNELS 3 Xrotation Yrotation Zrotation
								End Site
								{
									OFFSET 0.005565 0.013310 0.025494
								}
							}
						}
					}
				}
			}
		}
		JOINT DEF_BN_leg_R_06
		{
			OFFSET -0.080456 0.021259 0.074559
			CHANNELS 3 Xrotation Yrotation Zrotation
			JOINT DEF_BN_Leg_R_07
			{
				OFFSET -0.054882 -0.067271 -0.025089
				CHANNELS 3 Xrotation Yrotation Zrotation
				JOINT DEF_BN_Leg_R_08
				{
					OFFSET -0.115127 0.146415 0.022722
					CHANNELS 3 Xrotation Yrotation Zrotation
					JOINT DEF_BN_Leg_R_09
					{
						OFFSET -0.090874 -0.059865 0.013586
						CHANNELS 3 Xrotation Yrotation Zrotation
						JOINT DEF_BN_Leg_R_10
						{
							OFFSET -0.063340 -0.087650 0.011264
							CHANNELS 3 Xrotation Yrotation Zrotation
							JOINT DEF_BN_Leg_R_10_end
							{
								OFFSET -0.031643 -0.103894 0.005099
								CHANNELS 3 Xrotation Yrotation Zrotation
								End Site
								{
									OFFSET -0.031643 0.011914 0.005099
								}
							}
						}
					}
				}
			}
		}
		JOINT DEF_BN_Bip01_Pelvis
		{
			OFFSET 0.000000 0.000000 0.000000
			CHANNELS 3 Xrotation Yrotation Zrotation
			JOINT DEF_BN_Bip01_Pelvis_end
			{
				OFFSET 0.006595 0.103387 0.109110
				CHANNELS 3 Xrotation Yrotation Zrotation
				End Site
				{
					OFFSET 0.006595 0.103387 0.109110
				}
			}
		}
		JOINT DEF_BN_Arm_L_01
		{
			OFFSET 0.079776 0.042065 0.175588
			CHANNELS 3 Xrotation Yrotation Zrotation
			JOINT DEF_BN_Arm_L_02
			{
				OFFSET 0.145664 0.040641 0.075148
				CHANNELS 3 Xrotation Yrotation Zrotation
				JOINT DEF_BN_Arm_L_03
				{
					OFFSET 0.008198 0.047794 0.068954
					CHANNELS 3 Xrotation Yrotation Zrotation
					JOINT DEF_BN_Arm_L_03_end
					{
						OFFSET -0.028034 0.038778 0.069401
						CHANNELS 3 Xrotation Yrotation Zrotation
						End Site
						{
							OFFSET -0.028034 0.038778 0.069401
						}
					}
				}
			}
		}
		JOINT DEF_BN_Arm_R_01
		{
			OFFSET -0.068366 0.039724 0.170309
			CHANNELS 3 Xrotation Yrotation Zrotation
			JOINT DEF_BN_Arm_R_02
			{
				OFFSET -0.153582 0.072870 0.105041
				CHANNELS 3 Xrotation Yrotation Zrotation
				JOINT DEF_BN_Arm_R_03
				{
					OFFSET -0.023332 0.086547 0.149780
					CHANNELS 3 Xrotation Yrotation Zrotation
					JOINT DEF_BN_Arm_R_03_end
					{
						OFFSET 0.039781 0.046970 0.163341
						CHANNELS 3 Xrotation Yrotation Zrotation
						End Site
						{
							OFFSET 0.039781 0.046970 0.163341
						}
					}
				}
			}
		}
	}
}
MOTION
Frames: 5
Frame Time: 0.033333
0.077625 0.188911 0.008003 -30.761895 1.103328 -9.878402 0.000065 0.000001 0.000005 0.000010 0.000012 -0.000018 4.872341 -27.014605 15.301149 -10.887708 -8.736054 26.458985 0.000002 0.000001 0.000001 -0.000005 -0.000018 0.000001 8.100032 0.760916 -10.658836 -20.016190 -11.868649 -2.818984 -0.000004 0.000010 0.000006 7.281300 0.728237 29.994803 9.656588 -3.809435 20.239763 -2.830696 1.771435 -4.883067 -5.805798 4.124318 -9.940862 -5.482036 3.857042 -9.370028 0.000004 0.000004 -0.000005 0.701100 -2.539291 -10.929231 -0.610194 -2.679845 -23.914241 -1.518589 -0.907738 2.989735 -3.168991 -2.094752 6.241584 -3.026136 -1.996162 5.975868 -0.000003 0.000001 -0.000007 -4.487850 25.920317 21.761227 -3.889214 -0.317999 3.747391 22.261794 -7.495078 -11.412864 21.713842 -4.068554 -15.767138 13.586006 -1.927345 -11.587674 -0.000007 -0.000002 -0.000012 -0.218081 31.686607 23.170805 -0.223464 -2.514688 8.112403 -1.644988 0.466612 6.182017 -0.043151 0.030288 0.225872 0.526115 -0.019452 -2.030481 -0.000000 0.000007 -0.000004 36.260771 -34.417648 -15.180959 4.140270 -0.235082 8.737304 11.208690 7.603731 12.335378 8.451851 4.102593 11.706214 7.577993 4.410935 12.487936 0.000005 0.000004 -0.000002 28.602064 -26.043511 -13.746272 -1.825642 -4.473874 14.815758 -0.699642 -0.460235 -6.904494 0.473863 0.309244 4.810828 1.423035 0.581609 16.749803 0.000007 0.000008 -0.000003 -0.000014 -0.000002 0.000001 -0.000009 0.000001 -0.000001 -13.528158 -10.490393 34.106027 5.650461 19.766156 -1.369650 -9.515172 34.791754 11.791495 -0.000001 0.000007 -0.000006 -8.006159 13.678922 -22.849817 -9.952275 -36.965056 0.405398 0.143744 0.116716 -0.042975 0.000002 0.000009 -0.000000 
0.083132 0.180022 0.023808 -24.390983 0.209412 -13.698339 0.000052 -0.000001 0.000007 0.000008 0.000028 -0.000036 2.720891 -24.404290 12.812399 -11.024512 -8.511128 26.223939 -0.000000 0.000002 0.000009 -0.000003 -0.000011 -0.000002 6.400496 0.978637 -12.699454 -20.025350 -11.485912 -3.312610 -0.000001 0.000003 0.000004 7.342116 2.619597 29.906711 9.584875 -3.793285 20.147502 -2.798152 1.749209 -4.825891 -5.766826 4.091338 -9.870861 -5.485012 3.859512 -9.375244 0.000009 -0.000003 0.000004 -0.570406 -2.667255 -6.924813 -2.563752 -3.009258 -21.207030 -1.891012 -1.148535 3.738256 -3.159324 -2.087578 6.221867 -2.828636 -1.851782 5.575762 0.000009 0.000000 -0.000006 -10.602386 22.883929 25.255019 -6.415508 -0.669850 6.172104 21.835896 -7.307143 -11.218178 23.039106 -4.519011 -16.697820 15.212257 -2.348296 -12.964293 -0.000004 0.000011 0.000000 -2.190359 31.928515 26.306552 -0.225288 -2.974224 9.575298 -1.832125 0.510429 6.880367 -0.037871 0.028759 0.203956 0.601282 -0.023801 -2.322794 0.000003 0.000004 -0.000001 33.113228 -30.877243 -14.994289 4.497232 -0.224732 9.497784 11.337280 7.710515 12.486760 8.819824 4.332316 12.234026 7.837992 4.604319 12.939656 0.000005 0.000001 0.000009 27.551385 -22.827296 -10.579620 -1.926305 -4.865361 16.051431 -0.548583 -0.366772 -5.471989 0.440885 0.285172 4.451743 1.340930 0.534570 15.723898 0.000006 -0.000002 -0.000000 -0.000001 0.000001 0.000001 -0.000006 0.000001 0.000001 -14.141773 -8.114295 32.972513 6.089858 22.438430 1.122202 -11.114629 39.539480 21.537706 0.000010 -0.000006 0.000000 -7.231327 15.967611 -24.242734 -11.728600 -30.603704 -0.359815 0.143947 0.116969 -0.043593 0.000001 0.000003 -0.000000 
0.087920 0.170415 0.037873 -17.502742 -1.338366 -17.143276 0.000023 0.000002 0.000009 0.000015 0.000023 -0.000027 0.630204 -21.564248 10.354628 -11.293392 -8.062484 25.758827 -0.000005 0.000009 0.000003 0.000003 -0.000026 -0.000008 4.617891 1.273526 -14.843374 -20.033577 -10.724386 -4.292436 -0.000008 0.000013 -0.000000 7.519471 4.591543 29.184565 9.252028 -3.721765 19.721951 -2.968719 1.865918 -5.122679 -5.864588 4.173847 -10.045093 -5.488014 3.861945 -9.380466 -0.000003 0.000001 0.000006 -2.251460 -1.944695 -2.811562 -4.680234 -3.473163 -18.261305 -2.234889 -1.377052 4.433697 -3.107938 -2.049413 6.117423 -2.593541 -1.682647 5.101441 -0.000003 0.000002 0.000002 -17.113071 19.818267 29.296590 -9.365636 -1.219583 9.001762 21.027924 -6.954709 -10.845406 24.227193 -4.943046 -17.527561 16.889501 -2.826174 -14.380328 -0.000010 0.000006 0.000001 -3.832902 32.443972 28.981398 -0.218712 -3.328628 10.704068 -1.972172 0.541663 7.401638 -0.016451 0.023435 0.117796 0.675814 -0.028495 -2.612732 0.000005 -0.000004 -0.000001 27.603497 -27.311138 -16.166073 4.517867 -0.224243 9.547330 11.353852 7.723190 12.513431 9.445508 4.733122 13.134014 8.413042 5.043118 13.943309 -0.000003 -0.000000 0.000002 25.241985 -19.101217 -7.868555 -2.019716 -5.264246 17.303900 -0.409702 -0.276083 -4.133605 0.407758 0.261288 4.098515 1.265495 0.493076 14.790889 0.000003 -0.000001 0.000003 0.000006 -0.000001 0.000002 0.000008 -0.000000 0.000002 -14.675075 -5.919432 31.941356 6.516418 25.178639 3.598068 -13.859828 43.789685 32.761361 0.000006 -0.000005 -0.000001 -6.493718 18.007573 -25.558008 -13.340161 -24.306552 -0.954799 0.144128 0.117232 -0.044198 0.000002 0.000004 -0.000000 
0.092189 0.161637 0.049612 -11.298623 -3.130310 -19.807267 0.000113 -0.000001 -0.000000 0.000012 0.000013 -0.000039 -1.255108 -18.706124 8.097270 -11.793535 -7.203745 24.881840 0.000002 0.000007 0.000006 -0.000010 -0.000013 -0.000001 2.882355 1.626890 -16.935085 -20.012681 -9.274271 -6.151840 -0.000006 0.000006 0.000005 7.785944 6.304809 28.101526 8.780018 -3.617849 19.119060 -3.244090 2.057132 -5.603684 -6.030130 4.314773 -10.341125 -5.545555 3.909880 -9.482890 0.000007 -0.000001 0.000005 -4.186433 -0.739994 0.838552 -6.636065 -4.004328 -15.522995 -2.414758 -1.498927 4.799148 -2.941124 -1.926371 5.779286 -2.301896 -1.476920 4.515978 -0.000003 0.000003 -0.000005 -22.751152 17.258220 33.037096 -12.063260 -1.855290 11.586942 20.108669 -6.560975 -10.416480 25.125083 -5.276216 -18.151605 18.329062 -3.272068 -15.592333 -0.000010 0.000003 0.000005 -5.033198 33.276426 31.087852 -0.209638 -3.572198 11.479554 -2.045433 0.557511 7.673689 0.033722 0.011225 -0.082929 0.756128 -0.033959 -2.925219 0.000004 -0.000009 0.000000 21.050146 -24.388316 -18.178157 4.191991 -0.234250 8.860865 10.954584 7.388118 12.073779 9.954044 5.069172 13.869320 9.046731 5.545114 15.059932 -0.000002 0.000009 -0.000007 22.392855 -15.709469 -5.699976 -2.102324 -5.654628 18.523989 -0.319618 -0.214667 -3.249481 0.363705 0.230008 3.628261 1.194771 0.455630 13.924030 0.000000 -0.000001 -0.000005 -0.000009 -0.000003 -0.000001 0.000004 0.000002 -0.000000 -15.110557 -4.022625 31.063280 6.900946 27.810973 5.919120 -17.255645 47.060000 44.388853 0.000007 -0.000004 -0.000004 -5.838784 19.713746 -26.716710 -14.742099 -18.452197 -1.395115 0.144324 0.117477 -0.044840 -0.000001 0.000001 0.000002 
0.095931 0.155236 0.058090 -6.855328 -4.608108 -21.471058 0.000019 0.000001 0.000004 0.000014 0.000000 -0.000025 -2.845133 -16.043063 6.156283 -12.459325 -6.008739 23.688727 -0.000003 -0.000002 0.000007 -0.000005 0.000013 0.000015 1.310218 2.004354 -18.834448 -19.906088 -7.275285 -8.708205 -0.000008 0.000010 -0.000003 8.065275 7.520504 27.072049 8.345847 -3.517654 18.563988 -3.512484 2.246809 -6.074354 -6.195595 4.457080 -10.637906 -5.605875 3.960299 -9.590341 0.000001 -0.000000 0.000001 -5.873924 0.388722 3.471335 -8.077642 -4.460681 -13.492469 -2.418176 -1.501130 4.806036 -2.704056 -1.754099 5.300671 -2.014016 -1.278198 3.941193 0.000005 0.000004 -0.000008 -26.456919 15.420211 35.489274 -13.856406 -2.349412 13.303750 19.434050 -6.277090 -10.098722 25.717870 -5.502321 -18.562178 19.324012 -3.599692 -16.428092 0.000001 0.000008 -0.000004 -5.775697 34.155017 32.525928 -0.202577 -3.715844 11.936642 -2.049388 0.558421 7.687875 0.109993 -0.007522 -0.387834 0.837933 -0.039991 -3.243563 0.000002 -0.000006 -0.000003 15.287488 -22.105755 -19.781616 3.726089 -0.241456 7.875856 9.811731 6.458984 10.801423 9.764140 4.943385 13.601292 9.287380 5.742480 15.489978 -0.000000 -0.000003 0.000000 20.013718 -13.299084 -4.143707 -2.160393 -5.956879 19.465498 -0.284757 -0.190244 -2.896331 0.310536 0.192951 3.066534 1.133964 0.424924 13.188346 -0.000001 -0.000004 -0.000005 -0.000006 0.000002 0.000001 0.000010 0.000001 0.000001 -15.438656 -2.551424 30.365037 7.231441 30.174458 7.970441 -20.589528 49.311360 55.177273 0.000020 -0.000008 0.000005 -5.315208 21.011294 -27.636713 -15.902704 -13.356916 -1.717380 0.144521 0.117738 -0.045464 -0.000005 -0.000005 0.000004 
